<svg xmlns="http://www.w3.org/2000/svg" xmlns:xlink="http://www.w3.org/1999/xlink" viewBox="0 0 531.77 252.5"><defs><style>.cls-1{fill:none;}.cls-2{clip-path:url(#clip-path);}.cls-3{fill:#39b54a;}.cls-3,.cls-4{fill-rule:evenodd;}.cls-4{fill:#1c75bc;}.cls-5{opacity:0.8;}.cls-6{clip-path:url(#clip-path-4);}.cls-7{opacity:0.6;}.cls-8{clip-path:url(#clip-path-5);}.cls-9{fill:#041723;}.cls-10{fill:#112b38;}</style><clipPath id="clip-path" transform="translate(0 0)"><rect class="cls-1" width="148.38" height="252.5"/></clipPath><clipPath id="clip-path-4" transform="translate(0 0)"><rect class="cls-1" y="121.08" width="45" height="60.73"/></clipPath><clipPath id="clip-path-5" transform="translate(0 0)"><rect class="cls-1" x="2.14" y="178.5" width="23.15" height="25.58"/></clipPath></defs><title>Asset 4</title><g id="Layer_2" data-name="Layer 2"><g id="Layer_1-2" data-name="Layer 1"><g class="cls-2"><g class="cls-2"><g class="cls-2"><path class="cls-3" d="M68.44,0C62.36,5,54.05,10.41,47.23,17.62,35.51,30,34.45,47.17,45.21,60.8c7.87,10,17.88,17.82,26.9,26.66,21.85,21.4,24.42,47.8,6.18,72.93-10.24,14.1-22.1,26.71-32.65,40.55-8.57,11.24-11,23.88-3.08,37.1,8,13.38,16.94,20.5,30.8,7.85,12.6-11.5,26.41-21.33,39-32.87,42.89-39.39,48.24-100.88,12.08-148-16.71-21.77-35.59-41.47-56-65" transform="translate(0 0)"/><path class="cls-4" d="M22.39,62.2C3.73,83.41,3.21,91,17,106.91,29.77,121.72,43.12,136,56.1,150.3c17.75-17.73,17.87-25.63,4.39-41.06-12.93-14.8-24.9-30.65-38.1-47" transform="translate(0 0)"/><g class="cls-5"><g class="cls-6"><path class="cls-4" d="M35.63,181.81c20-19.62,6.76-21.09-28.35-60.73C-8,137.85.36,155.65,35.63,181.81" transform="translate(0 0)"/></g></g><g class="cls-7"><g class="cls-8"><path class="cls-4" d="M25.29,197.55,5.4,178.5l-3.26,2.83,16.91,22.75,6.24-6.53" transform="translate(0 0)"/></g></g></g></g></g><path class="cls-9" d="M259.17,41.75q8.34,0,21.87,4.13a9.74,9.74,0,0,0,2.59.49,24.62,24.62,0,0,0,4.86-1.46,7.62,7.62,0,0,1,2.75-.49q5.43,0,11.47,8.59t6,16.36A11.25,11.25,0,0,1,306,77a8.41,8.41,0,0,1-6.6,3.12,9.56,9.56,0,0,1-5.26-1.3,92.18,92.18,0,0,1-8.91-7.69q-9.72-9.08-19.11-9.07a11.25,11.25,0,0,0-7.25,2.18A7,7,0,0,0,256.18,70q0,7,12.39,10.61,16.76,4.95,21.46,7.21,20.66,10,20.65,29.56,0,17.25-14.09,28.18-14.41,11.18-37.66,11.18a103.91,103.91,0,0,1-21.86-2.47q-11.5-2.47-16.61-5.79-3.89-2.6-7-11.3a50.11,50.11,0,0,1-3.12-17q0-4,1.62-6a6.24,6.24,0,0,1,5.1-2.59q3.08,0,5.91,3.16,1.71,1.78,8,11.42,3,4.53,9.52,7.53a31.89,31.89,0,0,0,13.48,3,18.7,18.7,0,0,0,9.72-2.23c2.48-1.48,3.73-3.39,3.73-5.71a7,7,0,0,0-2.92-5.59q-2.91-2.34-9.48-4.37a127.22,127.22,0,0,1-17.65-6.68,53.46,53.46,0,0,1-11.34-7.66q-12.8-11.33-12.79-25.75a31.1,31.1,0,0,1,3.32-13.89A34.53,34.53,0,0,1,226,53.17Q239.58,41.76,259.17,41.75Z" transform="translate(0 0)"/><path class="cls-9" d="M366.16,41.75q8.34,0,21.86,4.13a9.8,9.8,0,0,0,2.6.49,24.83,24.83,0,0,0,4.85-1.46,7.71,7.71,0,0,1,2.76-.49q5.41,0,11.46,8.59t6,16.36A11.24,11.24,0,0,1,413,77a8.44,8.44,0,0,1-6.6,3.12,9.59,9.59,0,0,1-5.27-1.3,92.18,92.18,0,0,1-8.91-7.69q-9.71-9.08-19.11-9.07a11.27,11.27,0,0,0-7.25,2.18A7,7,0,0,0,363.16,70q0,7,12.39,10.61,16.77,4.95,21.46,7.21,20.65,10,20.65,29.56,0,17.25-14.09,28.18-14.42,11.18-37.66,11.18a103.91,103.91,0,0,1-21.86-2.47q-11.51-2.47-16.6-5.79-3.9-2.6-7-11.3a50.11,50.11,0,0,1-3.12-17q0-4,1.62-6a6.24,6.24,0,0,1,5.1-2.59q3.09,0,5.92,3.16,1.69,1.78,8,11.42,3,4.53,9.52,7.53a31.92,31.92,0,0,0,13.48,3,18.7,18.7,0,0,0,9.72-2.23c2.49-1.48,3.73-3.39,3.73-5.71a7,7,0,0,0-2.92-5.59q-2.91-2.34-9.47-4.37a127.44,127.44,0,0,1-17.66-6.68A53.46,53.46,0,0,1,333,104.51q-12.79-11.33-12.79-25.75a31.1,31.1,0,0,1,3.32-13.89A34.53,34.53,0,0,1,333,53.17Q346.55,41.76,366.16,41.75Z" transform="translate(0 0)"/><path class="cls-9" d="M483.59,60.7c-3.73,0-6,.95-6.89,2.84a34.75,34.75,0,0,0-1.82,8.26A81.77,81.77,0,0,0,474,83q0,3,1.94,4.13t7.29,1.14a8.73,8.73,0,0,0,5.27-1.3,7.15,7.15,0,0,0,2.35-4.37q1.86-8.83,7.61-8.83,9.87,0,9.88,23.65,0,15-4.29,22a8,8,0,0,1-7.13,4.29c-3.19,0-5-2.13-5.51-6.4a27.77,27.77,0,0,0-1-5.83,8.08,8.08,0,0,0-2.31-3.24q-2.67-2.51-7.77-2.51-3.64,0-4.94,1.3T474.27,112c0,.43,0,2.94-.08,7.53q0,14,2.92,17.09a4.68,4.68,0,0,0,2,1.57,37.5,37.5,0,0,0,5.31,1,5.47,5.47,0,0,1,3.56,2.18,6.82,6.82,0,0,1,1.46,4.3c0,4.15-2.43,6.83-7.29,8q-10.53,2.52-29.56,2.51-16.68,0-23-1.94A9,9,0,0,1,425,151a8.34,8.34,0,0,1-1.78-5.18,7.15,7.15,0,0,1,2.59-5.75,30,30,0,0,1,4.46-2q4.53-1.77,5.42-8.26,1.46-10,1.46-45.43,0-15.31-1.05-19.84a8.63,8.63,0,0,0-5.1-6.32,17.79,17.79,0,0,1-5.31-3.12,5.38,5.38,0,0,1-1.25-3.84,7.06,7.06,0,0,1,3.48-6,14.82,14.82,0,0,1,8.58-2.39c2.16,0,5.32.17,9.48.49q13.2,1.05,31.58,1.05,29.4,0,39.61-1.62c.91-.1,1.61-.16,2.1-.16q2.84,0,5.43,3.24A31.75,31.75,0,0,1,531.77,66a12.6,12.6,0,0,1-2.35,8,7.43,7.43,0,0,1-6.15,3A6.93,6.93,0,0,1,519,75.85a93.3,93.3,0,0,1-7.45-7.94,16.9,16.9,0,0,0-8.79-5.51Q497.6,61.11,483.59,60.7Z" transform="translate(0 0)"/><path class="cls-10" d="M229.21,209.53,223,215.91v10h-7.33V186.75H223v20.09l19.49-20.09h8.22l-16.56,17.52,17.58,21.65h-8.57Z" transform="translate(0 0)"/><path class="cls-10" d="M285.41,219.82v6.1H255.84V186.75h28.79v6.1H263.16V203h19v6h-19v10.8Z" transform="translate(0 0)"/><path class="cls-10" d="M317.91,225.92l-8.06-11.47a13.93,13.93,0,0,1-1.52.06h-8.9v11.41h-7.32V186.75h16.22a21.93,21.93,0,0,1,8.93,1.68,13,13,0,0,1,5.83,4.81,13.42,13.42,0,0,1,2,7.45A13.2,13.2,0,0,1,323,208.3a12.92,12.92,0,0,1-6.22,4.75l9.06,12.87Zm-2.65-31q-2.47-2-7.26-2h-8.57v15.61H308q4.78,0,7.26-2a8,8,0,0,0,0-11.56Z" transform="translate(0 0)"/><path class="cls-10" d="M359.7,216.86H340l-3.88,9.06h-7.55l17.74-39.17h7.21l17.8,39.17h-7.66Zm-2.42-5.71L349.84,194l-7.38,17.12Z" transform="translate(0 0)"/><path class="cls-10" d="M375.46,186.75h7.32v33H403.4v6.15H375.46Z" transform="translate(0 0)"/><path class="cls-10" d="M436.52,216.86H416.8l-3.88,9.06h-7.55l17.74-39.17h7.21l17.8,39.17h-7.66Zm-2.42-5.71L426.66,194l-7.38,17.12Z" transform="translate(0 0)"/></g></g></svg>